<?xml version="1.0" encoding="UTF-8"?>
<svg width="216px" height="38px" viewBox="0 0 216 38" version="1.1" xmlns="http://www.w3.org/2000/svg" xmlns:xlink="http://www.w3.org/1999/xlink">
    <title>Group 3</title>
    <g id="Assets" stroke="none" stroke-width="1" fill="none" fill-rule="evenodd">
        <g id="Logo---Outlined" fill-rule="nonzero">
            <g id="Group-3">
                <path d="M45.76,8.072 C48.048,8.072 51.824,9.224 51.824,13.608 C51.824,17.336 48.672,19 45.456,19 L40.272,19 L40.272,18.632 C40.592,18.616 41.216,18.536 41.424,18.456 C41.792,18.312 41.888,18.024 41.888,17.672 L41.888,9.528 C41.888,9.176 41.792,8.888 41.424,8.712 C41.056,8.536 40.608,8.472 40.32,8.44 L40.32,8.072 L45.76,8.072 Z M45.84,18.488 C48,18.488 48.832,16.472 48.832,13.592 C48.832,10.68 47.6,8.584 45.552,8.584 C45.264,8.584 44.848,8.6 44.56,8.616 L44.56,17.464 C44.56,18.152 45.024,18.488 45.84,18.488 Z M59.2568888,18.632 L59.2568888,19 L53.3528888,19 L53.3528888,18.632 C53.6408888,18.616 54.2968888,18.536 54.4888888,18.456 C54.8728888,18.312 54.9688888,18.024 54.9688888,17.672 L54.9688888,9.528 C54.9688888,9.176 54.8568888,8.904 54.4888888,8.744 C54.2168888,8.632 53.6728888,8.472 53.3528888,8.44 L53.3528888,8.072 L59.2568888,8.072 L59.2568888,8.44 C58.9688888,8.472 58.4088888,8.568 58.1208888,8.664 C57.7368888,8.792 57.6408888,9.096 57.6408888,9.448 L57.6408888,17.592 C57.6408888,17.944 57.7688888,18.216 58.1208888,18.376 C58.3128888,18.456 58.9848888,18.6 59.2568888,18.632 Z M60.7857776,13.672 C60.7857776,10.136 63.2017776,7.8 66.6097776,7.8 C67.8737776,7.8 68.8017776,8.12 69.5377776,8.52 L70.0017776,7.928 L70.5457776,7.928 L70.6097776,11.976 L70.1457776,11.976 C69.3137776,9.528 68.2897776,8.312 66.7377776,8.312 C64.7857776,8.312 63.7617776,10.264 63.7617776,13.384 C63.7617776,16.44 64.7857776,18.664 66.4657776,18.664 C67.5057776,18.664 68.1777776,18.024 68.4977776,17.16 L68.4977776,15.656 C68.4817776,15.272 68.3697776,14.968 67.9537776,14.792 C67.6337776,14.648 67.0897776,14.536 66.8337776,14.52 L66.8337776,14.136 L72.4177776,14.136 L72.4177776,14.52 C72.1137776,14.552 71.7777776,14.616 71.4897776,14.728 C71.1057776,14.872 71.0097776,15.176 71.0097776,15.528 L71.0097776,19.144 L70.7377776,19.24 L69.7617776,18.216 C68.8017776,18.744 67.5537776,19.24 66.0977776,19.24 C63.2337776,19.24 60.7857776,17.448 60.7857776,13.672 Z M79.3386664,18.632 L79.3386664,19 L73.4346664,19 L73.4346664,18.632 C73.7226664,18.616 74.3786664,18.536 74.5706664,18.456 C74.9546664,18.312 75.0506664,18.024 75.0506664,17.672 L75.0506664,9.528 C75.0506664,9.176 74.9386664,8.904 74.5706664,8.744 C74.2986664,8.632 73.7546664,8.472 73.4346664,8.44 L73.4346664,8.072 L79.3386664,8.072 L79.3386664,8.44 C79.0506664,8.472 78.4906664,8.568 78.2026664,8.664 C77.8186664,8.792 77.7226664,9.096 77.7226664,9.448 L77.7226664,17.592 C77.7226664,17.944 77.8506664,18.216 78.2026664,18.376 C78.3946664,18.456 79.0666664,18.6 79.3386664,18.632 Z M90.4675552,8.072 L90.4675552,11.048 L90.0515552,11.048 C89.8275552,10.344 88.9635552,8.744 88.2755552,8.648 C87.9395552,8.6 87.5075552,8.568 87.1235552,8.568 L86.8035552,8.568 L86.8035552,17.544 C86.8035552,17.896 86.9315552,18.184 87.2835552,18.344 C87.4755552,18.424 88.2755552,18.6 88.5795552,18.632 L88.5795552,19 L82.3715552,19 L82.3715552,18.632 C82.6435552,18.616 83.4435552,18.504 83.6515552,18.424 C84.0195552,18.28 84.1315552,17.976 84.1315552,17.624 L84.1315552,8.568 L83.8115552,8.568 C83.4435552,8.568 82.9955552,8.6 82.6595552,8.648 C81.9875552,8.744 81.1075552,10.344 80.8835552,11.048 L80.4675552,11.048 L80.4675552,8.072 L90.4675552,8.072 Z M93.516444,14.648 L96.476444,14.648 L94.972444,10.776 L93.516444,14.648 Z M102.012444,18.632 L102.012444,19 L96.108444,19 L96.108444,18.632 C96.652444,18.584 97.676444,18.392 97.676444,17.992 C97.676444,17.864 97.644444,17.736 97.612444,17.656 L96.716444,15.272 L93.276444,15.272 C93.180444,15.528 92.828444,16.6 92.764444,16.792 C92.620444,17.208 92.572444,17.576 92.572444,17.784 C92.572444,18.344 93.772444,18.584 94.316444,18.632 L94.316444,19 L89.996444,19 L89.996444,18.632 C90.284444,18.6 90.748444,18.52 91.020444,18.344 C91.420444,18.088 91.692444,17.64 91.916444,17.096 C92.412444,15.864 94.940444,9.288 95.484444,7.896 L96.700444,7.896 C97.452444,9.784 100.108444,16.888 100.396444,17.576 C100.524444,17.896 100.668444,18.104 101.036444,18.328 C101.324444,18.504 101.740444,18.6 102.012444,18.632 Z M112.149333,15.544 L112.533333,15.544 L112.325333,19 L102.581333,19 L102.581333,18.632 C102.853333,18.6 103.605333,18.504 103.797333,18.424 C104.181333,18.264 104.277333,17.976 104.277333,17.624 L104.277333,9.512 C104.277333,9.16 104.197333,8.888 103.797333,8.728 C103.493333,8.6 102.853333,8.472 102.581333,8.44 L102.581333,8.072 L108.581333,8.072 L108.581333,8.44 C108.293333,8.472 107.733333,8.552 107.445333,8.648 C107.061333,8.776 106.949333,9.08 106.949333,9.432 L106.949333,17.128 C106.949333,18.376 107.221333,18.504 108.645333,18.504 C109.445333,18.504 110.277333,18.472 110.645333,18.104 C111.189333,17.56 111.829333,16.328 112.149333,15.544 Z M134.23111,8.072 L134.23111,8.44 C133.94311,8.472 133.57511,8.584 133.22311,8.776 C132.80711,9 132.47111,9.656 132.21511,10.36 C131.89511,11.24 129.54311,17.768 129.01511,19.128 L127.79911,19.128 C127.30311,17.672 125.73511,12.712 125.39911,11.8 L122.72711,19.128 L121.54311,19.128 C120.95111,17.304 118.66311,10.264 118.43911,9.592 C118.32711,9.256 118.16711,8.952 117.83111,8.744 C117.54311,8.568 117.11111,8.456 116.82311,8.44 L116.82311,8.072 L122.32711,8.072 L122.32711,8.44 C121.78311,8.488 121.06311,8.648 121.06311,9.016 C121.06311,9.112 121.11111,9.32 121.14311,9.464 C121.23911,9.8 122.72711,14.376 123.27111,15.96 L125.07911,10.952 C124.85511,10.168 124.58311,9.128 123.99111,8.76 C123.68711,8.568 123.30311,8.456 122.99911,8.44 L122.99911,8.072 L128.72711,8.072 L128.72711,8.44 C128.18311,8.488 127.22311,8.632 127.22311,9.016 C127.22311,9.128 127.25511,9.32 127.30311,9.464 C127.39911,9.768 128.93511,14.36 129.49511,15.928 C129.94311,14.808 131.12711,11.416 131.31911,10.824 C131.55911,10.104 131.67111,9.56 131.67111,9.288 C131.67111,8.712 130.66311,8.504 129.92711,8.44 L129.92711,8.072 L134.23111,8.072 Z M144.575999,15.656 L144.959999,15.656 L144.751999,19 L134.735999,19 L134.735999,18.632 C135.007999,18.6 135.743999,18.504 135.951999,18.424 C136.335999,18.28 136.431999,18.008 136.431999,17.64 L136.431999,9.544 C136.431999,9.192 136.351999,8.904 135.951999,8.744 C135.647999,8.632 135.007999,8.472 134.735999,8.44 L134.735999,8.072 L144.143999,8.072 L144.143999,10.936 L143.727999,10.936 C143.487999,10.2 142.671999,8.76 141.823999,8.648 C141.439999,8.6 141.023999,8.568 140.527999,8.568 L139.103999,8.568 L139.103999,13.08 L140.063999,13.08 C140.943999,13.08 141.263999,12.84 141.471999,12.632 C141.807999,12.296 142.031999,11.528 142.095999,11.096 L142.511999,11.096 L142.511999,15.656 L142.095999,15.656 C142.031999,15.16 141.743999,14.328 141.471999,14.04 C141.247999,13.8 140.911999,13.608 140.063999,13.608 L139.103999,13.608 L139.103999,17.144 C139.103999,18.312 139.343999,18.504 140.799999,18.504 C141.679999,18.504 142.719999,18.504 143.103999,18.12 C143.759999,17.48 144.351999,16.184 144.575999,15.656 Z M155.656888,15.544 L156.040888,15.544 L155.832888,19 L146.088888,19 L146.088888,18.632 C146.360888,18.6 147.112888,18.504 147.304888,18.424 C147.688888,18.264 147.784888,17.976 147.784888,17.624 L147.784888,9.512 C147.784888,9.16 147.704888,8.888 147.304888,8.728 C147.000888,8.6 146.360888,8.472 146.088888,8.44 L146.088888,8.072 L152.088888,8.072 L152.088888,8.44 C151.800888,8.472 151.240888,8.552 150.952888,8.648 C150.568888,8.776 150.456888,9.08 150.456888,9.432 L150.456888,17.128 C150.456888,18.376 150.728888,18.504 152.152888,18.504 C152.952888,18.504 153.784888,18.472 154.152888,18.104 C154.696888,17.56 155.336888,16.328 155.656888,15.544 Z M166.017777,8.072 L166.017777,11.048 L165.601777,11.048 C165.377777,10.344 164.513777,8.744 163.825777,8.648 C163.489777,8.6 163.057777,8.568 162.673777,8.568 L162.353777,8.568 L162.353777,17.544 C162.353777,17.896 162.481777,18.184 162.833777,18.344 C163.025777,18.424 163.825777,18.6 164.129777,18.632 L164.129777,19 L157.921777,19 L157.921777,18.632 C158.193777,18.616 158.993777,18.504 159.201777,18.424 C159.569777,18.28 159.681777,17.976 159.681777,17.624 L159.681777,8.568 L159.361777,8.568 C158.993777,8.568 158.545777,8.6 158.209777,8.648 C157.537777,8.744 156.657777,10.344 156.433777,11.048 L156.017777,11.048 L156.017777,8.072 L166.017777,8.072 Z M178.394666,8.072 L178.394666,8.44 C178.010666,8.488 177.738666,8.584 177.466666,8.744 C177.018666,9.016 176.666666,9.384 176.362666,9.864 C175.546666,11.176 175.098666,11.928 174.218666,13.464 C173.642666,14.456 173.626666,14.792 173.626666,15.784 L173.626666,17.56 C173.626666,17.896 173.754666,18.2 174.106666,18.36 C174.298666,18.44 175.114666,18.616 175.386666,18.632 L175.386666,19 L169.162666,19 L169.162666,18.632 C169.450666,18.616 170.250666,18.52 170.458666,18.44 C170.842666,18.296 170.954666,17.992 170.954666,17.64 L170.954666,15.464 C170.954666,14.76 170.890666,14.52 170.458666,13.736 C170.074666,13.032 168.618666,10.376 168.282666,9.8 C167.994666,9.32 167.642666,8.936 167.274666,8.712 C166.986666,8.536 166.570666,8.456 166.266666,8.44 L166.266666,8.072 L172.522666,8.072 L172.522666,8.44 C171.962666,8.472 170.922666,8.6 170.922666,8.904 C170.922666,9.016 171.210666,9.656 171.626666,10.44 C171.802666,10.776 172.810666,12.728 173.418666,13.736 C173.706666,13.288 174.890666,11.016 175.050666,10.744 C175.658666,9.736 175.866666,9.256 175.866666,9.096 C175.866666,8.664 175.050666,8.488 174.330666,8.44 L174.330666,8.072 L178.394666,8.072 Z M192.476443,15.544 L192.860443,15.544 L192.652443,19 L182.908443,19 L182.908443,18.632 C183.180443,18.6 183.932443,18.504 184.124443,18.424 C184.508443,18.264 184.604443,17.976 184.604443,17.624 L184.604443,9.512 C184.604443,9.16 184.524443,8.888 184.124443,8.728 C183.820443,8.6 183.180443,8.472 182.908443,8.44 L182.908443,8.072 L188.908443,8.072 L188.908443,8.44 C188.620443,8.472 188.060443,8.552 187.772443,8.648 C187.388443,8.776 187.276443,9.08 187.276443,9.432 L187.276443,17.128 C187.276443,18.376 187.548443,18.504 188.972443,18.504 C189.772443,18.504 190.604443,18.472 190.972443,18.104 C191.516443,17.56 192.156443,16.328 192.476443,15.544 Z M196.485332,14.648 L199.445332,14.648 L197.941332,10.776 L196.485332,14.648 Z M204.981332,18.632 L204.981332,19 L199.077332,19 L199.077332,18.632 C199.621332,18.584 200.645332,18.392 200.645332,17.992 C200.645332,17.864 200.613332,17.736 200.581332,17.656 L199.685332,15.272 L196.245332,15.272 C196.149332,15.528 195.797332,16.6 195.733332,16.792 C195.589332,17.208 195.541332,17.576 195.541332,17.784 C195.541332,18.344 196.741332,18.584 197.285332,18.632 L197.285332,19 L192.965332,19 L192.965332,18.632 C193.253332,18.6 193.717332,18.52 193.989332,18.344 C194.389332,18.088 194.661332,17.64 194.885332,17.096 C195.381332,15.864 197.909332,9.288 198.453332,7.896 L199.669332,7.896 C200.421332,9.784 203.077332,16.888 203.365332,17.576 C203.493332,17.896 203.637332,18.104 204.005332,18.328 C204.293332,18.504 204.709332,18.6 204.981332,18.632 Z M205.550221,8.072 L211.262221,8.072 C213.774221,8.072 215.262221,8.728 215.262221,10.504 C215.262221,12.024 213.966221,12.68 212.510221,13.048 L212.510221,13.192 C214.078221,13.368 215.822221,14.184 215.822221,16.04 C215.822221,18.264 214.014221,19 211.006221,19 L205.550221,19 L205.550221,18.632 C205.822221,18.6 206.558221,18.504 206.766221,18.424 C207.150221,18.28 207.246221,17.992 207.246221,17.64 L207.246221,9.528 C207.246221,9.176 207.150221,8.888 206.766221,8.728 C206.478221,8.6 205.806221,8.472 205.550221,8.44 L205.550221,8.072 Z M212.462221,10.68 C212.462221,9.288 211.694221,8.568 210.542221,8.568 C210.366221,8.568 210.094221,8.584 209.902221,8.6 L209.902221,12.952 L210.206221,12.952 C211.774221,12.952 212.462221,12.024 212.462221,10.68 Z M212.974221,15.976 C212.974221,14.408 212.126221,13.464 210.526221,13.464 C210.350221,13.464 210.030221,13.496 209.902221,13.512 L209.902221,17.816 C209.982221,18.184 210.398221,18.488 211.070221,18.488 C212.222221,18.488 212.974221,17.496 212.974221,15.976 Z" id="DIGITALWELTYLAB" fill="#222222"></path>
                <path d="M43.516,32.512 L44.416,29.788 C44.284,29.056 44.032,28.72 43.624,28.72 C42.664,28.72 41.62,31.216 41.62,32.848 C41.62,33.58 41.86,33.712 42.1,33.712 C42.592,33.712 43.096,33.256 43.516,32.512 Z M46.204,32.248 L46.444,32.32 C46.012,33.388 45.58,34.132 44.728,34.132 C43.996,34.132 43.492,33.82 43.492,32.992 L43.444,32.98 C42.988,33.7 42.388,34.168 41.764,34.168 C41.032,34.168 40.216,33.712 40.216,32.272 C40.216,30.712 41.74,28.42 43.588,28.42 C44.044,28.42 44.452,28.792 44.536,29.332 L44.572,29.332 L44.848,28.492 L46.216,28.492 L44.848,32.464 C44.68,32.956 44.584,33.34 44.584,33.496 C44.584,33.772 44.704,33.832 44.896,33.832 C45.424,33.832 45.808,33.268 46.204,32.248 Z M49.963,28.612 L51.355,28.612 L51.223,29.008 L49.843,29.008 C49.519,30.1 48.895,32.224 48.787,32.644 C48.679,33.028 48.583,33.364 48.583,33.508 C48.583,33.784 48.727,33.832 48.919,33.832 C49.459,33.832 49.891,33.268 50.299,32.224 L50.527,32.296 C50.095,33.376 49.603,34.132 48.739,34.132 C48.175,34.132 47.347,33.88 47.347,33.16 C47.347,32.884 47.431,32.644 47.467,32.512 C47.611,31.972 48.427,29.284 48.511,29.008 L47.383,29.008 L47.515,28.612 L48.655,28.612 L49.183,26.752 L50.515,26.752 L49.963,28.612 Z M63.361,25.804 L66.373,25.804 L66.301,26.056 C66.073,26.068 65.605,26.128 65.377,26.2 C65.065,26.296 64.933,26.5 64.849,26.8 L63.241,33.004 C63.217,33.076 63.205,33.184 63.205,33.244 C63.205,33.412 63.277,33.496 63.457,33.58 C63.601,33.652 64.093,33.748 64.321,33.76 L64.273,34 L60.313,34 L60.373,33.76 C60.577,33.748 61.045,33.7 61.213,33.64 C61.525,33.532 61.669,33.304 61.729,33.052 L63.301,26.824 L58.609,33.868 L58.381,33.868 C58.357,33.364 58.297,32.776 58.201,32.2 L57.277,26.956 L56.005,31.72 C55.897,32.116 55.813,32.632 55.813,32.824 C55.813,33.088 55.861,33.256 55.969,33.364 C56.149,33.556 56.869,33.748 57.085,33.76 L57.025,34 L53.449,34 L53.521,33.76 C53.785,33.748 54.481,33.58 54.709,33.436 C55.033,33.232 55.273,32.752 55.537,31.792 L56.737,27.376 C56.869,26.884 56.821,26.584 56.629,26.392 C56.401,26.164 55.969,26.068 55.657,26.056 L55.717,25.804 L58.525,25.804 L59.581,31.732 L62.809,26.836 C63.133,26.344 63.313,25.936 63.361,25.804 Z M69.088,25.372 C69.484,25.372 69.736,25.756 69.736,26.152 C69.736,26.68 69.412,27.148 68.836,27.148 C68.368,27.148 68.128,26.8 68.128,26.356 C68.128,25.828 68.488,25.372 69.088,25.372 Z M69.256,32.248 L69.472,32.32 C69.04,33.388 68.584,34.132 67.744,34.132 C67.144,34.132 66.388,33.88 66.388,33.148 C66.388,32.86 66.448,32.62 66.616,32.2 L67.444,30.112 C67.636,29.62 67.756,29.188 67.756,29.032 C67.756,28.78 67.66,28.708 67.468,28.708 C66.94,28.708 66.568,29.308 66.172,30.328 L65.944,30.244 C66.376,29.188 66.796,28.42 67.66,28.42 C68.296,28.42 68.968,28.78 68.968,29.488 C68.968,29.752 68.752,30.304 68.62,30.652 L67.912,32.464 C67.708,32.992 67.576,33.34 67.576,33.52 C67.576,33.796 67.732,33.832 67.924,33.832 C68.452,33.832 68.86,33.268 69.256,32.248 Z M71.287,25.216 L74.203,25.096 L71.839,32.488 C71.683,32.992 71.551,33.364 71.551,33.52 C71.551,33.784 71.695,33.832 71.887,33.832 C72.427,33.832 72.835,33.268 73.231,32.248 L73.447,32.32 C73.015,33.388 72.559,34.132 71.707,34.132 C71.119,34.132 70.363,33.88 70.363,33.148 C70.363,32.86 70.471,32.56 70.579,32.2 L72.319,26.692 C72.451,26.284 72.487,26.044 72.487,25.888 C72.487,25.624 72.271,25.54 72.007,25.504 C71.707,25.468 71.575,25.468 71.287,25.456 L71.287,25.216 Z M75.19,25.216 L78.106,25.096 L75.742,32.488 C75.586,32.992 75.454,33.364 75.454,33.52 C75.454,33.784 75.598,33.832 75.79,33.832 C76.33,33.832 76.738,33.268 77.134,32.248 L77.35,32.32 C76.918,33.388 76.462,34.132 75.61,34.132 C75.022,34.132 74.266,33.88 74.266,33.148 C74.266,32.86 74.374,32.56 74.482,32.2 L76.222,26.692 C76.354,26.284 76.39,26.044 76.39,25.888 C76.39,25.624 76.174,25.54 75.91,25.504 C75.61,25.468 75.478,25.468 75.19,25.456 L75.19,25.216 Z M80.953,28.42 C82.105,28.42 82.501,29.188 82.501,29.62 C82.501,30.172 82.261,30.52 81.853,30.52 C81.493,30.52 81.169,30.352 81.169,29.944 C81.169,29.392 81.985,29.32 82.033,29.188 C82.009,29.02 81.721,28.66 80.977,28.66 C80.593,28.66 80.089,28.936 80.089,29.608 C80.089,30.712 82.069,30.952 82.069,32.476 C82.069,33.34 81.109,34.168 79.777,34.168 C78.529,34.168 77.941,33.46 77.941,32.788 C77.941,32.284 78.313,31.84 78.709,31.84 C79.321,31.84 79.453,32.224 79.453,32.452 C79.453,32.692 79.309,33.052 78.829,33.052 C78.577,33.052 78.385,32.992 78.385,33.172 C78.385,33.544 79.009,33.916 79.645,33.916 C80.341,33.916 80.893,33.616 80.893,32.968 C80.893,31.72 78.877,31.516 78.877,30.052 C78.877,29.224 79.777,28.42 80.953,28.42 Z M86.62,32.512 L87.52,29.788 C87.388,29.056 87.136,28.72 86.728,28.72 C85.768,28.72 84.724,31.216 84.724,32.848 C84.724,33.58 84.964,33.712 85.204,33.712 C85.696,33.712 86.2,33.256 86.62,32.512 Z M89.308,32.248 L89.548,32.32 C89.116,33.388 88.684,34.132 87.832,34.132 C87.1,34.132 86.596,33.82 86.596,32.992 L86.548,32.98 C86.092,33.7 85.492,34.168 84.868,34.168 C84.136,34.168 83.32,33.712 83.32,32.272 C83.32,30.712 84.844,28.42 86.692,28.42 C87.148,28.42 87.556,28.792 87.64,29.332 L87.676,29.332 L87.952,28.492 L89.32,28.492 L87.952,32.464 C87.784,32.956 87.688,33.34 87.688,33.496 C87.688,33.772 87.808,33.832 88,33.832 C88.528,33.832 88.912,33.268 89.308,32.248 Z M93.175,33.844 C94.147,33.844 95.215,31.288 95.215,29.728 C95.215,28.996 94.915,28.876 94.687,28.876 C94.147,28.876 93.643,29.428 93.235,30.016 L92.311,32.98 C92.467,33.58 92.743,33.844 93.175,33.844 Z M95.035,28.42 C95.755,28.42 96.619,28.804 96.619,30.304 C96.619,31.912 95.059,34.156 93.187,34.156 C92.731,34.156 92.323,33.808 92.215,33.388 L92.167,33.388 L91.567,35.332 C91.447,35.704 91.399,35.98 91.399,36.136 C91.399,36.4 91.615,36.484 91.891,36.52 C92.191,36.556 92.311,36.556 92.599,36.568 L92.539,36.808 L88.867,36.808 L88.927,36.58 C89.479,36.58 89.635,36.484 89.779,36.316 C90.007,36.064 90.139,35.596 90.235,35.308 L91.879,30.112 C92.023,29.644 92.155,29.212 92.155,29.056 C92.155,28.792 92.071,28.708 91.903,28.708 C91.399,28.708 91.003,29.308 90.607,30.328 L90.367,30.244 C90.799,29.188 91.231,28.42 92.071,28.42 C92.623,28.42 93.235,28.78 93.235,29.572 L93.283,29.584 C93.763,28.96 94.291,28.42 95.035,28.42 Z M100.27,28.42 C101.422,28.42 101.818,29.188 101.818,29.62 C101.818,30.172 101.578,30.52 101.17,30.52 C100.81,30.52 100.486,30.352 100.486,29.944 C100.486,29.392 101.302,29.32 101.35,29.188 C101.326,29.02 101.038,28.66 100.294,28.66 C99.91,28.66 99.406,28.936 99.406,29.608 C99.406,30.712 101.386,30.952 101.386,32.476 C101.386,33.34 100.426,34.168 99.094,34.168 C97.846,34.168 97.258,33.46 97.258,32.788 C97.258,32.284 97.63,31.84 98.026,31.84 C98.638,31.84 98.77,32.224 98.77,32.452 C98.77,32.692 98.626,33.052 98.146,33.052 C97.894,33.052 97.702,32.992 97.702,33.172 C97.702,33.544 98.326,33.916 98.962,33.916 C99.658,33.916 100.21,33.616 100.21,32.968 C100.21,31.72 98.194,31.516 98.194,30.052 C98.194,29.224 99.094,28.42 100.27,28.42 Z M113.068,25.684 L113.548,25.684 L112.972,28.648 L112.696,28.648 C112.54,27.088 112.168,25.996 110.716,25.996 C109.192,25.996 107.608,28.156 107.56,30.832 C107.536,32.5 108.184,33.676 109.588,33.676 C110.788,33.676 111.532,32.932 112.336,31.744 L112.6,31.924 C111.844,33.088 110.956,34.18 109.168,34.18 C107.068,34.18 105.892,32.908 105.892,31.12 C105.892,28.048 108.22,25.648 110.86,25.648 C111.58,25.648 112.132,25.864 112.612,26.26 L113.068,25.684 Z M116.995,28.42 C117.931,28.42 118.843,29.068 118.843,30.556 C118.843,32.032 117.571,34.168 115.387,34.168 C114.499,34.168 113.527,33.52 113.527,32.044 C113.527,30.58 114.799,28.42 116.995,28.42 Z M115.495,33.94 C116.635,33.94 117.439,31.564 117.451,29.92 C117.463,28.96 117.163,28.624 116.875,28.624 C115.771,28.624 114.931,30.988 114.919,32.62 C114.907,33.532 115.171,33.94 115.495,33.94 Z M120.682,25.216 L123.598,25.096 L121.234,32.488 C121.078,32.992 120.946,33.364 120.946,33.52 C120.946,33.784 121.09,33.832 121.282,33.832 C121.822,33.832 122.23,33.268 122.626,32.248 L122.842,32.32 C122.41,33.388 121.954,34.132 121.102,34.132 C120.514,34.132 119.758,33.88 119.758,33.148 C119.758,32.86 119.866,32.56 119.974,32.2 L121.714,26.692 C121.846,26.284 121.882,26.044 121.882,25.888 C121.882,25.624 121.666,25.54 121.402,25.504 C121.102,25.468 120.97,25.468 120.682,25.456 L120.682,25.216 Z M124.585,25.216 L127.501,25.096 L125.137,32.488 C124.981,32.992 124.849,33.364 124.849,33.52 C124.849,33.784 124.993,33.832 125.185,33.832 C125.725,33.832 126.133,33.268 126.529,32.248 L126.745,32.32 C126.313,33.388 125.857,34.132 125.005,34.132 C124.417,34.132 123.661,33.88 123.661,33.148 C123.661,32.86 123.769,32.56 123.877,32.2 L125.617,26.692 C125.749,26.284 125.785,26.044 125.785,25.888 C125.785,25.624 125.569,25.54 125.305,25.504 C125.005,25.468 124.873,25.468 124.585,25.456 L124.585,25.216 Z M127.492,32.248 C127.492,30.88 128.8,28.42 131.032,28.42 C131.644,28.42 132.148,28.732 132.148,29.296 C132.148,30.448 130.756,31.192 129.1,31.432 C129.004,31.876 128.932,32.332 128.932,32.716 C128.932,33.412 129.1,33.772 129.64,33.772 C130.54,33.772 131.164,33.052 131.644,32.164 L131.86,32.272 C131.128,33.664 130.288,34.168 129.46,34.168 C128.488,34.168 127.492,33.688 127.492,32.248 Z M131.044,29.368 C131.068,28.876 130.948,28.66 130.684,28.66 C130.096,28.66 129.46,29.92 129.148,31.18 C130.576,30.904 131.02,29.968 131.044,29.368 Z M136.207,29.548 C136.207,29.044 136.015,28.612 135.571,28.612 C134.791,28.612 134.503,30.04 134.503,30.676 C134.503,31.24 134.671,31.768 135.091,31.768 C135.847,31.768 136.207,30.28 136.207,29.548 Z M133.159,30.532 C133.159,29.344 134.191,28.42 135.643,28.42 C136.315,28.42 136.903,28.636 137.131,28.684 C137.527,28.396 137.839,28.168 138.283,28.18 C138.655,28.18 138.931,28.504 138.931,28.864 C138.931,29.224 138.643,29.512 138.319,29.512 C137.959,29.512 137.791,29.2 137.707,28.66 C137.455,28.684 137.299,28.78 137.143,28.888 L137.143,28.948 C137.359,29.164 137.503,29.512 137.503,29.92 C137.503,31.12 136.387,31.96 135.115,31.96 L134.287,31.96 C134.083,32.056 133.831,32.2 133.831,32.464 C133.831,32.836 134.095,32.896 135.055,32.992 C135.415,33.028 136.051,33.1 136.291,33.136 C137.023,33.244 137.623,33.796 137.623,34.636 C137.623,35.728 136.651,36.808 134.131,36.808 C132.643,36.808 131.851,36.256 131.851,35.512 C131.851,34.732 132.559,34.156 133.879,33.976 L133.879,33.892 C133.339,33.784 132.823,33.532 132.823,33.004 C132.823,32.272 133.687,31.984 134.071,31.864 L134.071,31.804 C133.495,31.54 133.159,31.06 133.159,30.532 Z M136.363,34.936 C136.363,34.636 136.267,34.336 135.979,34.264 C135.343,34.12 134.755,34.096 134.131,34.072 C133.519,34.228 133.171,34.72 133.171,35.464 C133.171,36.004 133.543,36.568 134.431,36.568 C135.679,36.568 136.363,35.86 136.363,34.936 Z M138.814,32.248 C138.814,30.88 140.122,28.42 142.354,28.42 C142.966,28.42 143.47,28.732 143.47,29.296 C143.47,30.448 142.078,31.192 140.422,31.432 C140.326,31.876 140.254,32.332 140.254,32.716 C140.254,33.412 140.422,33.772 140.962,33.772 C141.862,33.772 142.486,33.052 142.966,32.164 L143.182,32.272 C142.45,33.664 141.61,34.168 140.782,34.168 C139.81,34.168 138.814,33.688 138.814,32.248 Z M142.366,29.368 C142.39,28.876 142.27,28.66 142.006,28.66 C141.418,28.66 140.782,29.92 140.47,31.18 C141.898,30.904 142.342,29.968 142.366,29.368 Z" id="atMillsapsCollege" fill="#6E6F6F"></path>
                <path d="M15.0351017,0.0228960649 C15.450297,-0.0413603485 16.1818315,0.032781667 16.8392241,0.205779703 C17.8969835,0.487519362 18.1688376,0.616032189 18.7224313,1.08559829 C19.3847666,1.65402041 19.6467351,1.76770483 20.5710389,1.89621766 C20.8725497,1.94070287 21.2086602,2.01978768 21.3272874,2.07415849 C21.4409718,2.13347211 21.7325971,2.34601255 21.9698515,2.55361019 C22.207106,2.76615064 22.5185025,3.03306189 22.6618437,3.15168912 C22.9336978,3.37411517 23.5713191,4.14024933 23.8431731,4.57027302 C24.1644552,5.06949592 24.3275676,5.81585888 24.2089404,6.24588257 C24.1792836,6.35462419 24.0161712,6.65613505 23.8431731,6.91810351 C23.4724631,7.47664002 23.3093506,7.96597733 23.274751,8.64808387 C23.250037,9.14236397 23.3044078,9.36479002 23.5169483,9.60698727 C23.7146603,9.82941332 23.9024868,9.89861253 24.1891692,9.85412732 C24.4165381,9.82447051 24.4610233,9.78492811 25.1826722,9.04845075 C25.5978675,8.62336986 26.057548,8.10437575 26.205832,7.89677811 C26.5419425,7.42721201 26.6951693,7.28881358 27.2537059,6.97247432 C28.0148972,6.53750783 28.2916941,6.48313702 28.7316034,6.68579186 C29.1715127,6.8933895 29.4977375,7.41732641 29.4137099,7.79297929 C29.3988815,7.8671213 29.2654259,8.18346057 29.1171418,8.49485704 C28.840345,9.08799316 28.6179189,9.84424172 28.5684909,10.3484074 C28.5536625,10.5115199 28.5783765,10.9712004 28.6228617,11.3616816 C28.6673469,11.7571057 28.7266606,12.7110663 28.7513746,13.4870861 C28.790917,14.880956 28.7958598,14.9007272 28.9540294,15.3900645 L29.112199,15.8843446 L29.1220846,18.1333191 L29.136913,20.3822935 L28.9688578,21.1731417 C28.7958598,21.9590471 28.3806645,23.2590037 28.0396112,24.0696231 C27.920984,24.3563056 27.8369564,24.667702 27.7825856,25.0087553 C27.6886723,25.6463766 27.6392443,25.8144319 27.3179623,26.580566 C26.976909,27.401071 26.6902265,27.8360375 25.7214375,29.0074813 C25.0986446,29.7587871 24.7625341,30.5941205 24.8861042,31.078515 C24.9602462,31.3553118 25.2024434,31.6024519 25.4742975,31.6667083 C25.5780963,31.6963651 26.0872048,31.7309647 26.6012561,31.7457931 C27.7529288,31.7803927 28.0890392,31.8347635 28.5042345,32.0324756 C28.9688578,32.2598444 29.2851971,32.6008977 29.5570511,33.164377 C30.3380137,34.7707873 30.0612168,36.4019117 28.9243726,36.9258486 C28.5684909,37.088961 27.846842,37.088961 27.4810747,36.9209058 C27.1400214,36.7676789 26.7099977,36.3129413 26.3837729,35.7544047 C26.2404316,35.5072647 26.0427196,35.2156394 25.9537492,35.101955 C25.6225815,34.6966453 24.6686209,34.3654776 23.9568576,34.4050201 C23.5120055,34.4297341 23.250037,34.5434185 22.5432165,34.9932134 C21.7424827,35.5023219 21.5645419,35.5814067 21.2185458,35.5814067 C21.0504906,35.5814067 20.7736937,35.5369215 20.5957529,35.4776079 C20.1756148,35.3441522 19.8395043,35.3441522 19.5429362,35.4726651 C19.2809678,35.5863495 18.7224313,35.9669452 18.0848099,36.4562825 C17.4768454,36.9307914 17.2346482,37.0247046 16.5723128,37.0543614 C15.499725,37.0988466 15.2525849,36.9011346 15.0894725,35.8878604 C14.9906165,35.2700102 14.8818749,35.0327558 14.3480524,34.2270792 C13.636289,33.1594342 13.4237486,33.0111502 12.4648452,32.9024085 C12.0545927,32.8579233 11.9063086,32.8579233 11.599855,32.9221797 C11.0858037,33.0309214 10.0033302,33.4411739 9.02959844,33.9008543 C7.64067135,34.5582469 7.22547607,34.6521601 5.66849374,34.6669885 C4.69970474,34.6768741 4.58107751,34.6867597 4.31416626,34.7905585 C4.047255,34.8943574 3.32066325,35.4084087 2.50510108,36.070744 C1.95150736,36.5205389 1.31388603,36.6836513 0.864091136,36.4809965 C0.40441064,36.2783416 0.221527002,35.8285468 0.221527002,34.8745862 C0.221527002,34.0787952 0.290726216,33.7377419 0.577408676,33.0852922 C0.705921503,32.7837813 0.873976738,32.3389292 0.948118754,32.096732 C1.1754876,31.3404834 1.41274205,30.9005741 1.79828053,30.5348068 C2.43590186,29.9367279 2.97466718,29.5759034 4.0620834,29.0272525 C4.63544832,28.7356273 5.22858445,28.4242308 5.38181128,28.3303176 C5.76240696,28.1029487 6.15783104,27.9447791 6.73613876,27.7964951 C7.32927489,27.6432682 7.68515656,27.6383254 8.94062802,27.7767239 C9.46456493,27.8360375 10.1516143,27.8854655 10.4630107,27.8904083 C10.9820049,27.8953511 11.0561469,27.8854655 11.3082297,27.7668383 C11.6443402,27.6086686 11.797567,27.4109566 11.797567,27.1391025 C11.797567,26.7634497 11.5059418,26.5410236 10.7348648,26.3136548 C10.0478155,26.1159427 9.89953143,26.0269723 9.37559452,25.5228066 C9.10868326,25.2657809 8.8121152,25.0186409 8.72314478,24.9790985 C8.62923156,24.9444989 8.27829269,24.8308145 7.94712502,24.7319584 C7.61101455,24.6331024 7.23041887,24.4996468 7.09696324,24.4304476 C6.83005198,24.2969919 6.04908942,23.6840846 5.34721167,23.0612917 C5.10007162,22.8388656 4.70959034,22.507698 4.47727869,22.3297571 C3.53320369,21.5833942 2.95489597,20.9556584 2.46555867,20.1499819 C2.32716024,19.922613 2.109677,19.6161594 1.98610697,19.4678753 C1.85759414,19.3195913 1.62033969,18.9192244 1.45722726,18.5781711 C1.29411483,18.2420607 1.07663158,17.8416938 0.972832759,17.688467 C0.686150299,17.2633861 0.592237079,17.0508456 0.478552655,16.5466799 C0.419239043,16.2896543 0.295669017,15.825031 0.206698599,15.5136345 C0.11772818,15.202238 0.0287577614,14.806814 0.00898655725,14.6437015 C-0.0354986521,14.2433346 0.0880713738,13.3684589 0.315440221,12.4985259 C0.409353441,12.1327586 0.552694671,11.5544509 0.631779487,11.2133976 C0.794891922,10.5115199 0.864091136,10.333579 1.32871443,9.50318845 C1.69942451,8.83591031 1.91690776,8.60359866 2.34693145,8.40588662 C3.21686443,8.01046253 4.09668301,8.36634421 4.44762189,9.2609912 C4.5168211,9.44881764 4.68981914,10.0419538 4.82327476,10.5708335 C5.12972843,11.7620485 5.16927084,11.8707901 5.66849374,12.943378 C5.89091979,13.4178869 6.15783104,14.0209086 6.26657267,14.2779342 C6.37531429,14.5349599 6.51865552,14.8364708 6.58291193,14.9452124 C6.78062397,15.2813229 8.11518025,16.5516227 8.63417436,16.8976188 C8.89120001,17.065674 9.26191009,17.3572993 9.44973653,17.5401829 C9.64250577,17.7230666 9.99344464,17.9998634 10.2356419,18.1580331 C10.9918905,18.6473704 11.8371094,19.3690193 12.1583915,19.8039858 C12.3116183,20.0165262 12.5043876,20.2488379 12.5785296,20.3229799 C12.6526716,20.3921791 13.0480957,20.6047196 13.463291,20.7974888 C14.0267703,21.0644001 14.2640247,21.1484277 14.4271372,21.1484277 C14.9461313,21.1484277 15.351441,20.5997768 15.2921274,19.9670982 C15.2723561,19.7347866 14.9065889,18.6671416 14.6594488,18.108605 C14.4172516,17.5648969 13.4188058,16.047457 13.1469517,15.8052598 C12.8800404,15.5729481 12.2572475,15.2961513 11.476285,15.0638396 C11.0956893,14.9501552 10.6854368,14.806814 10.5618668,14.7475003 C10.2751843,14.6041591 9.94401663,14.2482774 9.67710538,13.7984825 C9.38053732,13.2992596 9.2915669,13.0323484 9.17788247,12.3106994 C9.03948405,11.4555949 8.86648601,10.8229163 8.65394556,10.4225494 C8.55508954,10.234723 8.21403627,9.7552713 7.8878114,9.34996161 C7.56652934,8.94959473 7.24524727,8.50474264 7.17604806,8.37128701 C6.95856481,7.93137772 6.8943084,7.47664002 6.9190224,6.56716463 C6.95856481,5.23755116 7.13156285,4.76304226 7.82355499,4.09576412 C8.41174831,3.5322848 8.75280159,3.29997315 9.60296336,2.87983506 C10.0181586,2.67718022 10.5371528,2.39049776 10.754636,2.24221373 C10.9721192,2.0939297 11.3131725,1.88138925 11.5108846,1.76770483 C11.9161942,1.53539318 12.2078195,1.31296713 12.5093304,1.00157067 C12.8256696,0.680288602 13.1074093,0.502347765 13.5176618,0.368892137 C13.8438866,0.260150515 14.5408216,0.101980881 15.0351017,0.0228960649 Z M16.2263167,1.77759043 C15.8951491,1.57493559 15.4651254,1.6194208 15.1389005,1.88138925 C14.9708453,2.01484488 14.5358788,2.583267 14.2343679,3.0676615 C14.0959695,3.29008755 14.0712555,3.36917236 14.0712555,3.63608362 C14.0712555,4.0067937 14.1948255,4.41210338 14.4370228,4.82235587 C14.8077329,5.4550344 15.3415554,5.75160246 15.8951491,5.63791804 C16.4339144,5.52423362 16.7453109,5.17823754 16.9430229,4.4763598 C17.1456777,3.73988244 17.0764785,3.14180352 16.6810544,2.34106975 C16.5129992,2.00001648 16.4388572,1.90610326 16.2263167,1.77759043 Z M20.9417489,4.41210338 C20.7440369,4.33301857 20.4968968,4.27864775 20.2744708,4.26381935 C19.6912203,4.22427694 19.5281078,4.35773257 19.0634845,5.24249396 C18.6235752,6.08277013 18.6087468,6.4139378 18.9745141,6.96258872 C19.2117686,7.32341319 19.5824786,7.62986686 19.8642183,7.70895167 C20.1261868,7.77815089 20.4968968,7.65952366 21.0504906,7.32341319 C21.6930547,6.93787471 21.9006523,6.48807982 21.7919107,5.70217445 C21.7276543,5.22766555 21.5843131,4.85695548 21.3915438,4.66912904 C21.3174018,4.59992982 21.114747,4.4862454 20.9417489,4.41210338 Z M11.9310226,5.25732236 C11.7530818,5.17329474 11.5899694,5.13375233 11.4021429,5.13869513 C10.7002652,5.14363794 9.83033221,5.67746045 9.74136179,6.15691215 C9.64744857,6.65119225 9.83033221,7.12075835 10.3097839,7.60515285 C10.8436064,8.14886096 11.3774289,8.3268018 12.3116183,8.28725939 C12.7218708,8.26748819 12.8701548,8.24277418 13.0579813,8.14391816 C13.6461746,7.8522929 13.5918038,7.24432837 12.8948689,6.21128296 C12.5587584,5.71700286 12.2424191,5.40066359 11.9310226,5.25732236 Z M19.9630743,9.51307405 C19.7159343,9.43398923 19.0239421,9.37467562 18.8163445,9.41421803 C18.4505772,9.48836004 18.2924076,9.55755926 18.0996383,9.7355001 C17.7981275,10.012297 17.7042143,10.284151 17.7091571,10.8426875 C17.7140999,11.6187073 17.9167547,12.0783878 18.3467784,12.295871 C18.6828889,12.4688691 19.3353386,12.4738119 19.7801907,12.3008138 C20.1607864,12.1525298 20.3634412,11.9350466 20.6105813,11.4209952 C20.9565773,10.6795751 20.9071493,10.2297802 20.442526,9.80964211 C20.3041276,9.68607209 20.09653,9.55755926 19.9630743,9.51307405 Z M14.2788531,9.82941332 C14.0465415,9.72067169 13.4237486,9.65641528 13.1321233,9.71078609 C12.6675,9.79975651 12.2918471,10.037011 12.1287347,10.3385218 C12.0348215,10.5164627 12.0199931,10.6202615 12.0199931,11.0651136 C12.0249359,11.6582497 12.1237919,11.9696462 12.4055315,12.2415002 C12.741642,12.5677251 13.4089202,12.7258947 14.0910267,12.6418671 C14.5457644,12.5874963 14.7583048,12.4441551 14.9362457,12.0783878 C15.0647585,11.8213621 15.0697013,11.7719341 15.0499301,11.3221392 C15.0054449,10.5263483 14.7632476,10.0567822 14.2788531,9.82941332 Z M27.174621,11.425938 C26.828625,11.1936264 26.1465184,11.3320248 25.6670667,11.7274489 C25.0937018,12.197015 24.7971337,12.8198079 24.7279345,13.7095121 C24.4709089,17.0953308 24.4461949,17.3721277 24.2484828,18.2816031 C24.144684,18.7610548 24.144684,18.8351968 24.1990548,19.2701633 C24.5401081,21.909619 24.5401081,22.7004672 24.2039976,24.0646803 C24.0408852,24.741844 23.9964,25.1224397 24.0557136,25.3448658 C24.1743408,25.7946607 24.7032205,26.1505423 25.2568142,26.1555752 C25.7412087,26.1604279 26.00812,25.9627159 26.3442305,25.3498086 C26.4430865,25.1718677 26.6259701,24.9049565 26.7495401,24.7566724 C27.3327907,24.0498519 27.4019899,23.8274258 27.3377335,22.853694 C27.2734771,21.835477 27.2883055,21.4252245 27.4217611,20.9260016 C27.5354455,20.4910351 27.5354455,20.4218359 27.5601595,17.836751 C27.5700451,16.3835675 27.5799307,14.4805891 27.5848735,13.6106561 L27.5898163,12.0289598 L27.4662463,11.7818197 C27.3970471,11.6434213 27.2685343,11.4852517 27.174621,11.425938 Z M18.0502103,14.4361039 C17.7486995,14.3471335 17.412589,14.2779342 17.3087902,14.2779342 C16.9281945,14.282877 16.6266836,14.4904747 16.270802,14.9946404 C15.7913503,15.6668613 15.7369794,16.0276858 16.0187191,16.7295636 C16.1126323,16.9618752 16.2510308,17.3572993 16.32023,17.6044393 C16.5278276,18.3162027 16.7304825,18.7017412 17.1605061,19.1960213 C17.4719026,19.5568457 17.6053582,19.7644434 17.8623839,20.3081515 C18.183666,20.9754296 18.6828889,21.7415638 19.0486561,22.1122739 C19.152455,22.2259583 19.4094806,22.4434416 19.6170783,22.5966684 C20.145958,22.9970353 20.2398712,23.1552049 20.5660961,24.2129643 C20.7736937,24.8802425 20.9071493,25.1323253 21.1345182,25.2855521 C21.5991415,25.6018914 22.0983644,25.2064673 22.1675636,24.46999 C22.2120488,24.0251379 22.1527352,23.0662345 22.0291652,22.3001003 C21.8759383,21.3560253 21.8017963,18.8450824 21.8759383,17.3671849 C21.9896228,15.0737252 21.9154807,14.5942735 21.4162578,14.3570191 C21.1691178,14.2433346 20.9516345,14.258163 20.4375832,14.4361039 C20.0075595,14.5843879 19.9334175,14.5942735 19.2859106,14.5942735 C18.6532321,14.5942735 18.5494332,14.5794451 18.0502103,14.4361039 Z M5.67343654,16.8037056 C4.84304597,16.6059935 4.58602031,16.6801355 4.54647791,17.1249876 C4.5267067,17.3226997 4.55142071,17.4462697 4.67993353,17.762609 C4.76890395,17.9800922 4.90730238,18.3359739 4.9863872,18.5534571 C5.22858445,19.2207353 5.44112489,19.4975321 5.960119,19.8435282 C6.06886062,19.9127274 6.28140107,20.1351535 6.4296851,20.3328655 C6.57796913,20.5305776 6.83993759,20.8123172 7.00799282,20.9556584 C7.18099086,21.1039425 7.49733012,21.3906249 7.71481337,21.5982226 C8.17943667,22.0282463 8.42657672,22.2061871 8.91591402,22.4533272 C9.12845446,22.557126 9.43490813,22.7746092 9.65733417,22.9772641 C9.96378784,23.2590037 10.1862139,23.402345 10.7744072,23.698913 C11.3527149,23.9905383 11.5850266,24.1437651 11.8618234,24.395848 C12.2374763,24.741844 12.5389872,24.9543845 12.9788965,25.1718677 C13.1321233,25.2509525 13.3940918,25.4585502 13.6016894,25.6760334 C14.0663127,26.1554851 14.2887387,26.2543411 14.8868177,26.2543411 C15.4552398,26.2543411 15.8457211,26.1455995 16.0187191,25.9380019 C16.2362023,25.6809762 16.1719459,25.463493 15.746865,24.9494417 C15.648009,24.8258717 15.4799538,24.5589604 15.376155,24.3563056 C15.1438433,23.8867395 14.9708453,23.6692562 14.6495632,23.4418874 C14.506222,23.3430313 14.1948255,23.0514061 13.9476855,22.804266 C13.537433,22.3841279 13.4731766,22.3396427 13.1568373,22.2358439 C12.5884152,22.0529603 12.2671331,21.860191 11.8914802,21.4944238 C11.5108846,21.1187709 11.2192593,20.9309444 10.5618668,20.6343764 C10.0725295,20.4119503 9.93413103,20.3229799 9.59307776,20.0066406 C9.44973653,19.873185 9.14822567,19.6458162 8.91591402,19.4975321 C8.64405996,19.3195913 8.42163392,19.1317649 8.30300669,18.9735952 C8.19920787,18.8401396 8.03609544,18.6177136 7.93229661,18.4842579 C7.83344059,18.3557451 7.57147214,18.1184906 7.35398889,17.9652638 C7.13156285,17.8070942 6.85970879,17.5698397 6.74108156,17.4363841 C6.4346279,17.0755596 6.17265945,16.91739 5.67343654,16.8037056 Z M10.7002652,29.0223097 C10.4877247,28.9481677 9.89458862,28.9531105 9.40030852,29.0321953 C9.18282528,29.0717377 8.67371677,29.1261085 8.26346428,29.1557654 C7.00305002,29.2447358 6.72131036,29.3238206 6.02437541,29.7785583 C5.62895133,30.0355839 5.21375605,30.2036392 4.64533393,30.3370948 C4.31416626,30.4161796 3.96817019,30.6386057 3.85448576,30.8462033 C3.71114453,31.1180574 3.74080134,31.5530239 3.93357058,31.9435051 C4.29439505,32.6750397 4.76890395,32.8282665 5.59435173,32.4723848 C5.92551939,32.3339864 6.30611507,32.2351304 8.59957475,31.6815367 C9.16305407,31.5480811 9.7660758,31.3701402 9.93413103,31.2910554 C10.4827819,31.0389725 11.1055749,30.356866 11.2093737,29.9070711 C11.2934013,29.536361 11.0759181,29.1607082 10.7002652,29.0223097 Z" id="Shape" fill="#222222"></path>
            </g>
        </g>
    </g>
</svg>